<mxfile host="Electron" agent="Mozilla/5.0 (X11; Linux x86_64) AppleWebKit/537.36 (KHTML, like Gecko) draw.io/24.7.8 Chrome/128.0.6613.36 Electron/32.0.1 Safari/537.36" version="24.7.8">
  <diagram name="Page-1" id="mnzX3WkwDPug98Utxquo">
    <mxGraphModel dx="874" dy="558" grid="1" gridSize="10" guides="1" tooltips="1" connect="1" arrows="1" fold="1" page="1" pageScale="1" pageWidth="850" pageHeight="1100" math="0" shadow="0">
      <root>
        <mxCell id="0" />
        <mxCell id="1" parent="0" />
        <mxCell id="FbxUH1-o6mLs-0eBZnZ8-12" style="edgeStyle=orthogonalEdgeStyle;rounded=0;orthogonalLoop=1;jettySize=auto;html=1;exitX=0.5;exitY=1;exitDx=0;exitDy=0;" edge="1" parent="1" source="FbxUH1-o6mLs-0eBZnZ8-1" target="FbxUH1-o6mLs-0eBZnZ8-5">
          <mxGeometry relative="1" as="geometry" />
        </mxCell>
        <mxCell id="FbxUH1-o6mLs-0eBZnZ8-1" value="ESP32" style="whiteSpace=wrap;html=1;aspect=fixed;" vertex="1" parent="1">
          <mxGeometry x="290" y="150" width="80" height="80" as="geometry" />
        </mxCell>
        <mxCell id="FbxUH1-o6mLs-0eBZnZ8-8" style="edgeStyle=orthogonalEdgeStyle;rounded=0;orthogonalLoop=1;jettySize=auto;html=1;exitX=1;exitY=0.5;exitDx=0;exitDy=0;entryX=0;entryY=0.5;entryDx=0;entryDy=0;" edge="1" parent="1" source="FbxUH1-o6mLs-0eBZnZ8-2" target="FbxUH1-o6mLs-0eBZnZ8-1">
          <mxGeometry relative="1" as="geometry" />
        </mxCell>
        <mxCell id="FbxUH1-o6mLs-0eBZnZ8-2" value="LOAD CELL &amp;amp;&lt;div&gt;HX711 AMPLIFIER&lt;/div&gt;" style="rounded=0;whiteSpace=wrap;html=1;" vertex="1" parent="1">
          <mxGeometry x="90" y="160" width="120" height="60" as="geometry" />
        </mxCell>
        <mxCell id="FbxUH1-o6mLs-0eBZnZ8-10" style="edgeStyle=orthogonalEdgeStyle;rounded=0;orthogonalLoop=1;jettySize=auto;html=1;exitX=0;exitY=0.5;exitDx=0;exitDy=0;entryX=1;entryY=0.5;entryDx=0;entryDy=0;" edge="1" parent="1" source="FbxUH1-o6mLs-0eBZnZ8-3" target="FbxUH1-o6mLs-0eBZnZ8-1">
          <mxGeometry relative="1" as="geometry" />
        </mxCell>
        <mxCell id="FbxUH1-o6mLs-0eBZnZ8-3" value="MFRC522 RFID" style="rounded=0;whiteSpace=wrap;html=1;" vertex="1" parent="1">
          <mxGeometry x="470" y="160" width="120" height="60" as="geometry" />
        </mxCell>
        <mxCell id="FbxUH1-o6mLs-0eBZnZ8-14" style="edgeStyle=orthogonalEdgeStyle;rounded=0;orthogonalLoop=1;jettySize=auto;html=1;exitX=1;exitY=0;exitDx=0;exitDy=27.5;exitPerimeter=0;" edge="1" parent="1" source="FbxUH1-o6mLs-0eBZnZ8-4" target="FbxUH1-o6mLs-0eBZnZ8-5">
          <mxGeometry relative="1" as="geometry">
            <mxPoint x="310" y="430" as="targetPoint" />
            <Array as="points">
              <mxPoint x="285" y="438" />
              <mxPoint x="285" y="431" />
            </Array>
          </mxGeometry>
        </mxCell>
        <mxCell id="FbxUH1-o6mLs-0eBZnZ8-4" value="DATABASE" style="shape=cylinder3;whiteSpace=wrap;html=1;boundedLbl=1;backgroundOutline=1;size=15;" vertex="1" parent="1">
          <mxGeometry x="200" y="410" width="60" height="80" as="geometry" />
        </mxCell>
        <mxCell id="FbxUH1-o6mLs-0eBZnZ8-5" value="WEB APPLICATION" style="sketch=0;outlineConnect=0;gradientColor=none;fontColor=#545B64;strokeColor=none;fillColor=#FFFFFF;dashed=0;verticalLabelPosition=bottom;verticalAlign=top;align=center;html=1;fontSize=12;fontStyle=0;aspect=fixed;shape=mxgraph.aws4.illustration_desktop;pointerEvents=1;noLabel=0;" vertex="1" parent="1">
          <mxGeometry x="320" y="410" width="100" height="91" as="geometry" />
        </mxCell>
        <mxCell id="FbxUH1-o6mLs-0eBZnZ8-11" style="edgeStyle=orthogonalEdgeStyle;rounded=0;orthogonalLoop=1;jettySize=auto;html=1;exitX=0;exitY=0.5;exitDx=0;exitDy=0;" edge="1" parent="1" source="FbxUH1-o6mLs-0eBZnZ8-6">
          <mxGeometry relative="1" as="geometry">
            <mxPoint x="420" y="190" as="targetPoint" />
          </mxGeometry>
        </mxCell>
        <mxCell id="FbxUH1-o6mLs-0eBZnZ8-6" value="MOTORS" style="rounded=1;whiteSpace=wrap;html=1;" vertex="1" parent="1">
          <mxGeometry x="470" y="240" width="120" height="60" as="geometry" />
        </mxCell>
        <mxCell id="FbxUH1-o6mLs-0eBZnZ8-9" style="edgeStyle=orthogonalEdgeStyle;rounded=0;orthogonalLoop=1;jettySize=auto;html=1;exitX=1;exitY=0.5;exitDx=0;exitDy=0;" edge="1" parent="1" source="FbxUH1-o6mLs-0eBZnZ8-7">
          <mxGeometry relative="1" as="geometry">
            <mxPoint x="270" y="190" as="targetPoint" />
          </mxGeometry>
        </mxCell>
        <mxCell id="FbxUH1-o6mLs-0eBZnZ8-7" value="LCD, BUZZER" style="rounded=0;whiteSpace=wrap;html=1;" vertex="1" parent="1">
          <mxGeometry x="90" y="250" width="120" height="60" as="geometry" />
        </mxCell>
        <mxCell id="FbxUH1-o6mLs-0eBZnZ8-13" style="edgeStyle=orthogonalEdgeStyle;rounded=0;orthogonalLoop=1;jettySize=auto;html=1;entryX=1;entryY=0.588;entryDx=0;entryDy=0;entryPerimeter=0;" edge="1" parent="1" source="FbxUH1-o6mLs-0eBZnZ8-5" target="FbxUH1-o6mLs-0eBZnZ8-4">
          <mxGeometry relative="1" as="geometry" />
        </mxCell>
      </root>
    </mxGraphModel>
  </diagram>
</mxfile>
